<svg width="24" height="24" viewBox="0 0 24 24" fill="none" xmlns="http://www.w3.org/2000/svg">
<path d="M12.5124 10.6986C13.8043 11.0194 14.9986 11.5895 14.9986 13.5776L15 13.5778C15 15.0843 14.0789 16.1492 12.6582 16.3663V17.5833C12.6582 18.0765 12.3272 18.3346 12.0001 18.3346C11.673 18.3346 11.3423 18.0765 11.3423 17.5833V16.3446C9.55317 16.0306 9.19445 14.6232 9.03197 13.9787L9.0206 13.9196C9.01137 13.8679 9 13.8039 9 13.7287C9 13.333 9.2424 12.9992 9.60361 12.8986L9.6258 12.8936C9.6995 12.8788 9.76059 12.8669 9.83677 12.8669C10.1861 12.8669 10.4693 13.1038 10.5586 13.4716C10.7114 14.136 10.9397 14.728 12.0601 14.728C12.9232 14.728 13.438 14.3021 13.438 13.5876C13.438 13.003 13.252 12.6803 12.1972 12.4286L11.4565 12.244C10.3338 11.9723 9.18451 11.4324 9.18451 9.49595C9.18451 8.43167 9.7478 7.21071 11.2775 6.92984V5.7393C11.2775 4.75357 12.5934 4.75357 12.5934 5.7393V6.92276C14.0174 7.1707 14.5314 8.25686 14.7143 8.94693C14.7446 9.04132 14.7597 9.13841 14.7597 9.23634C14.7597 9.63118 14.5111 9.96454 14.1542 10.0479C14.0963 10.0616 14.0189 10.0771 13.9327 10.0771C13.6001 10.0771 13.3336 9.86703 13.2188 9.51491L13.2096 9.48137C13.1126 9.07757 12.8789 8.54002 11.9669 8.54002C11.1967 8.54002 10.7369 8.89776 10.7369 9.49637C10.7369 9.95767 10.8151 10.3023 11.8277 10.5359L12.5124 10.6986Z" fill="white"/>
<path fill-rule="evenodd" clip-rule="evenodd" d="M0.6 1C0.268629 1 0 1.29848 0 1.66667C0 2.03486 0.268629 2.33333 0.6 2.33333H1.8L1.8 16.6738C1.8 17.6446 1.79999 18.4139 1.84559 19.034C1.89222 19.6681 1.98951 20.2047 2.21418 20.6946C2.57849 21.4891 3.15982 22.135 3.87484 22.5398C4.31578 22.7894 4.79868 22.8975 5.36939 22.9493C5.92747 23 6.61985 23 7.49353 23H16.5064C17.3801 23 18.0725 23 18.6306 22.9493C19.2013 22.8975 19.6842 22.7894 20.1252 22.5398C20.8402 22.135 21.4215 21.4891 21.7858 20.6946C22.0105 20.2047 22.1078 19.6681 22.1544 19.034C22.2 18.4139 22.2 17.6446 22.2 16.6739V2.33333H23.3995C23.7308 2.33333 24 2.03486 24 1.66667C24 1.29848 23.7314 1 23.4 1H0.6ZM3 16.6444V2.33333H21V16.6444C21 17.6511 20.9995 18.366 20.9584 18.9254C20.9178 19.4771 20.8407 19.8187 20.7166 20.0893C20.4673 20.6329 20.0696 21.0748 19.5804 21.3518C19.3368 21.4897 19.0294 21.5754 18.5329 21.6204C18.0294 21.6661 17.386 21.6667 16.48 21.6667H7.52C6.61402 21.6667 5.97061 21.6661 5.46711 21.6204C4.9706 21.5754 4.6632 21.4897 4.41962 21.3518C3.9304 21.0748 3.53265 20.6329 3.28338 20.0893C3.15927 19.8187 3.08217 19.4771 3.0416 18.9254C3.00047 18.366 3 17.6511 3 16.6444Z" fill="white"/>
</svg>
