<svg width="24" height="29" viewBox="0 0 24 29" fill="none" xmlns="http://www.w3.org/2000/svg">
<g clip-path="url(#clip0_62_13527)">
<path d="M18 12.7083C18 13.189 17.842 13.6501 17.5607 13.99C17.2794 14.3299 16.8978 14.5208 16.5 14.5208C16.1022 14.5208 15.7206 14.3299 15.4393 13.99C15.158 13.6501 15 13.189 15 12.7083C15 12.2276 15.158 11.7666 15.4393 11.4267C15.7206 11.0868 16.1022 10.8958 16.5 10.8958C16.8978 10.8958 17.2794 11.0868 17.5607 11.4267C17.842 11.7666 18 12.2276 18 12.7083Z" fill="#033333"/>
<path fill-rule="evenodd" clip-rule="evenodd" d="M4.813 5.95969L15.813 3.08794C16.1851 2.99077 16.5768 2.97386 16.9573 3.03853C17.3377 3.10321 17.6966 3.2477 18.0055 3.46063C18.3145 3.67357 18.5651 3.94913 18.7377 4.26562C18.9102 4.58211 19 4.93088 19 5.28447V6.20822C19.5304 6.20822 20.0391 6.40075 20.4142 6.74345C20.7893 7.08616 21 7.55096 21 8.03562V17.1726C21 17.6573 20.7893 18.1221 20.4142 18.4648C20.0391 18.8075 19.5304 19 19 19H5C4.46957 19 3.96086 18.8075 3.58579 18.4648C3.21071 18.1221 3 17.6573 3 17.1726V8.03562C3 7.0808 3.835 6.21462 4.813 5.95969ZM16.363 4.84498C16.4373 4.82563 16.5156 4.82229 16.5915 4.83522C16.6675 4.84815 16.7392 4.87699 16.8009 4.91949C16.8626 4.96199 16.9127 5.01698 16.9473 5.08015C16.9818 5.14332 16.9999 5.21294 17 5.28356V6.20822H11.14L16.363 4.84498ZM5 8.03562H19V17.1726H5V8.03562Z" fill="#033333"/>
<path opacity="0.9" d="M15 26.4167C15 27.7514 14.1046 28.8333 13 28.8333C11.8954 28.8333 11 27.7514 11 26.4167C11 25.082 11.8954 24 13 24C14.1046 24 15 25.082 15 26.4167Z" fill="#043434"/>
</g>
<defs>
<clipPath id="clip0_62_13527">
<rect width="24" height="29" fill="white"/>
</clipPath>
</defs>
</svg>
