<svg width="12" height="17" viewBox="0 0 12 17" fill="none" xmlns="http://www.w3.org/2000/svg">
<path d="M5.84831 7.61182C5.76249 7.60324 5.65951 7.60324 5.56512 7.61182C3.52271 7.54317 1.9008 5.86977 1.9008 3.8102C1.9008 1.70773 3.59994 0 5.711 0C7.81348 0 9.5212 1.70773 9.5212 3.8102C9.51262 5.86977 7.89071 7.54317 5.84831 7.61182Z" fill="#9E9E9E"/>
<path d="M1.55755 10.7784C-0.519183 12.1686 -0.519183 14.4341 1.55755 15.8158C3.91747 17.3948 7.78774 17.3948 10.1477 15.8158C12.2244 14.4255 12.2244 12.16 10.1477 10.7784C7.79632 9.20797 3.92605 9.20797 1.55755 10.7784Z" fill="#9E9E9E"/>
</svg>
