<svg width="20" height="20" viewBox="0 0 20 20" fill="none" xmlns="http://www.w3.org/2000/svg">
<path d="M16.6641 6.66732L9.9974 10.834L3.33073 6.66732V5.00065L9.9974 9.16732L16.6641 5.00065M16.6641 3.33398H3.33073C2.40573 3.33398 1.66406 4.07565 1.66406 5.00065V15.0007C1.66406 15.4427 1.83966 15.8666 2.15222 16.1792C2.46478 16.4917 2.8887 16.6673 3.33073 16.6673H16.6641C17.1061 16.6673 17.53 16.4917 17.8426 16.1792C18.1551 15.8666 18.3307 15.4427 18.3307 15.0007V5.00065C18.3307 4.55862 18.1551 4.1347 17.8426 3.82214C17.53 3.50958 17.1061 3.33398 16.6641 3.33398Z" fill="#9E9E9E"/>
</svg>
