<svg width="24" height="24" viewBox="0 0 24 24" fill="none" xmlns="http://www.w3.org/2000/svg">
<path d="M11.8149 10.87C11.7149 10.86 11.5949 10.86 11.4849 10.87C10.3371 10.831 9.2495 10.3468 8.45249 9.51995C7.65548 8.69307 7.2116 7.58844 7.21486 6.43999C7.21486 3.98999 9.19486 1.99999 11.6549 1.99999C12.8311 1.97877 13.9676 2.42568 14.8143 3.2424C15.661 4.05912 16.1486 5.17875 16.1699 6.35499C16.1911 7.53123 15.7442 8.66771 14.9274 9.51444C14.1107 10.3612 12.9911 10.8488 11.8149 10.87Z" fill="#043434"/>
<path d="M6.815 14.56C4.395 16.18 4.395 18.82 6.815 20.43C9.565 22.27 14.075 22.27 16.825 20.43C19.245 18.81 19.245 16.17 16.825 14.56C14.085 12.73 9.575 12.73 6.815 14.56Z" fill="#043434"/>
</svg>
