<svg width="24" height="35" viewBox="0 0 24 35" fill="none" xmlns="http://www.w3.org/2000/svg">
<path opacity="0.9" d="M13 29.4167C13 30.7514 12.1046 31.8333 11 31.8333C9.89543 31.8333 9 30.7514 9 29.4167C9 28.082 9.89543 27 11 27C12.1046 27 13 28.082 13 29.4167Z" fill="#043434"/>
<path fill-rule="evenodd" clip-rule="evenodd" d="M3.37 14.279C3.37106 15.0697 3.68571 15.8277 4.24493 16.3868C4.80415 16.9458 5.56228 17.2602 6.353 17.261H7.589C7.78791 17.261 7.97868 17.34 8.11933 17.4807C8.25998 17.6213 8.339 17.8121 8.339 18.011C8.339 18.2099 8.25998 18.4007 8.11933 18.5413C7.97868 18.682 7.78791 18.761 7.589 18.761H6.353C5.16461 18.7597 4.02526 18.2871 3.18485 17.4469C2.34444 16.6066 1.87159 15.4674 1.87 14.279L1.869 10.954L0.75 10.955C0.551088 10.955 0.360322 10.876 0.21967 10.7353C0.0790176 10.5947 0 10.4039 0 10.205C0 10.0061 0.0790176 9.81532 0.21967 9.67467C0.360322 9.53402 0.551088 9.455 0.75 9.455L2.606 9.454H19.894L21.75 9.455C21.9489 9.455 22.1397 9.53402 22.2803 9.67467C22.421 9.81532 22.5 10.0061 22.5 10.205C22.5 10.4039 22.421 10.5947 22.2803 10.7353C22.1397 10.876 21.9489 10.955 21.75 10.955H20.63V14.279C20.6284 15.4674 20.1556 16.6066 19.3151 17.4469C18.4747 18.2871 17.3354 18.7597 16.147 18.761H14.942C14.7431 18.761 14.5523 18.682 14.4117 18.5413C14.271 18.4007 14.192 18.2099 14.192 18.011C14.192 17.8121 14.271 17.6213 14.4117 17.4807C14.5523 17.34 14.7431 17.261 14.942 17.261H16.147C16.9377 17.2602 17.6959 16.9458 18.2551 16.3868C18.8143 15.8277 19.1289 15.0697 19.13 14.279V10.954H3.369V14.279H3.37ZM16.147 0C17.3352 0.00132232 18.4744 0.473787 19.3148 1.31379C20.1552 2.1538 20.6281 3.29279 20.63 4.481V5.995C20.63 6.19391 20.551 6.38468 20.4103 6.52533C20.2697 6.66598 20.0789 6.745 19.88 6.745C19.6811 6.745 19.4903 6.66598 19.3497 6.52533C19.209 6.38468 19.13 6.19391 19.13 5.995V4.481C19.1284 3.69062 18.8135 2.93312 18.2544 2.37452C17.6952 1.81591 16.9374 1.50179 16.147 1.501H14.942C14.7431 1.501 14.5523 1.42198 14.4117 1.28133C14.271 1.14068 14.192 0.949912 14.192 0.751C14.192 0.552088 14.271 0.361322 14.4117 0.22067C14.5523 0.0800176 14.7431 0.001 14.942 0.001H16.147V0ZM7.589 0C7.78791 0 7.97868 0.0790176 8.11933 0.21967C8.25998 0.360322 8.339 0.551088 8.339 0.75C8.339 0.948912 8.25998 1.13968 8.11933 1.28033C7.97868 1.42098 7.78791 1.5 7.589 1.5H6.353C5.56245 1.50079 4.80447 1.81505 4.24528 2.37387C3.68609 2.93269 3.37132 3.69045 3.37 4.481V5.995C3.37 6.19391 3.29098 6.38468 3.15033 6.52533C3.00968 6.66598 2.81891 6.745 2.62 6.745C2.42109 6.745 2.23032 6.66598 2.08967 6.52533C1.94902 6.38468 1.87 6.19391 1.87 5.995V4.481C1.87212 3.29296 2.34521 2.15423 3.18556 1.31444C4.02591 0.474649 5.16496 0.00232169 6.353 0.001H7.59L7.589 0Z" fill="#033333"/>
</svg>
