<svg width="34" height="34" viewBox="0 0 34 34" fill="none" xmlns="http://www.w3.org/2000/svg">
<path d="M11.1391 22.4726C11.0108 22.3442 10.9332 22.1737 10.9208 21.9925C10.9085 21.8114 10.9621 21.6319 11.0718 21.4873L11.1391 21.4101L20.4778 12.0714L13.7444 12.0856C13.5541 12.0869 13.3705 12.0161 13.2304 11.8873C13.0904 11.7586 13.0044 11.5815 12.9899 11.3918C12.9753 11.2021 13.0332 11.014 13.152 10.8654C13.2707 10.7167 13.4414 10.6187 13.6296 10.591L13.7408 10.5832L22.2933 10.5648C22.4831 10.5648 22.666 10.6364 22.8054 10.7652L22.8266 10.7851L22.8472 10.8056C22.8572 10.8164 22.8669 10.8275 22.8762 10.8389L22.8266 10.7851C22.9404 10.8994 23.0146 11.047 23.0384 11.2065L23.0398 11.2165C23.0442 11.2496 23.0463 11.2829 23.0462 11.3163L23.0299 19.8709C23.0321 20.0623 22.9612 20.2473 22.8316 20.3882C22.702 20.5291 22.5235 20.6152 22.3326 20.6289C22.1417 20.6426 21.9527 20.583 21.8043 20.4621C21.6558 20.3413 21.5591 20.1683 21.5339 19.9785L21.5268 19.868L21.5396 13.136L12.2023 22.4733C12.0614 22.6142 11.8703 22.6933 11.6711 22.6933C11.4718 22.6933 11.2807 22.6142 11.1398 22.4733L11.1391 22.4726Z" fill="#033333"/>
</svg>
