<svg width="20" height="20" viewBox="0 0 20 20" fill="none" xmlns="http://www.w3.org/2000/svg">
<path fill-rule="evenodd" clip-rule="evenodd" d="M8.1694 12.7105C8.68979 13.0633 9.32402 13.2766 9.99891 13.2766C11.7878 13.2766 13.2432 11.808 13.2432 10.0031C13.2432 9.32213 13.0318 8.68219 12.6822 8.15712L11.7959 9.05139C11.9423 9.33033 12.0236 9.6585 12.0236 10.0031C12.0236 11.1271 11.1129 12.0459 9.99891 12.0459C9.6574 12.0459 9.33215 11.9639 9.05569 11.8162L8.1694 12.7105ZM15.3573 5.45793C16.5364 6.54089 17.5365 8.00124 18.2846 9.75695C18.3496 9.91283 18.3496 10.0933 18.2846 10.241C16.5445 14.3267 13.4465 16.7716 9.99891 16.7716H9.99078C8.42146 16.7716 6.9172 16.2547 5.59182 15.3112L4.01438 16.9028C3.89241 17.0259 3.73792 17.0833 3.58343 17.0833C3.42894 17.0833 3.26631 17.0259 3.15248 16.9028C2.9492 16.6977 2.91667 16.3696 3.0793 16.1316L3.10369 16.0988L15.1297 3.96476C15.1459 3.94835 15.1622 3.93194 15.1703 3.91553L15.1703 3.91553C15.1866 3.89912 15.2028 3.88271 15.211 3.86631L15.9753 3.09511C16.2192 2.85719 16.6014 2.85719 16.8372 3.09511C17.0811 3.33303 17.0811 3.72684 16.8372 3.96476L15.3573 5.45793ZM6.74864 10.0063C6.74864 10.2196 6.77304 10.4329 6.80556 10.6298L3.79703 13.6654C2.98392 12.7137 2.27651 11.5651 1.71546 10.2442C1.65041 10.0965 1.65041 9.91603 1.71546 9.76015C3.45553 5.67444 6.55349 3.23778 9.99297 3.23778H10.0011C11.1639 3.23778 12.2941 3.51672 13.3349 4.0418L10.6191 6.78201C10.4239 6.74919 10.2125 6.72458 10.0011 6.72458C8.20412 6.72458 6.74864 8.19314 6.74864 10.0063Z" fill="#9E9E9E"/>
</svg>
