<svg width="22" height="22" viewBox="0 0 22 22" fill="none" xmlns="http://www.w3.org/2000/svg">
<path d="M10.75 2C9.75544 2 8.80161 2.39509 8.09835 3.09835C7.39509 3.80161 7 4.75544 7 5.75V11C7 11.9946 7.39509 12.9484 8.09835 13.6517C8.80161 14.3549 9.75544 14.75 10.75 14.75C11.7446 14.75 12.6984 14.3549 13.4017 13.6517C14.1049 12.9484 14.5 11.9946 14.5 11V5.75C14.5 4.75544 14.1049 3.80161 13.4017 3.09835C12.6984 2.39509 11.7446 2 10.75 2Z" fill="#737B8C"/>
<path d="M4.75 10.25C4.94891 10.25 5.13968 10.329 5.28033 10.4697C5.42098 10.6103 5.5 10.8011 5.5 11C5.5 12.3924 6.05312 13.7277 7.03769 14.7123C8.02226 15.6969 9.35761 16.25 10.75 16.25C12.1424 16.25 13.4777 15.6969 14.4623 14.7123C15.4469 13.7277 16 12.3924 16 11C16 10.8011 16.079 10.6103 16.2197 10.4697C16.3603 10.329 16.5511 10.25 16.75 10.25C16.9489 10.25 17.1397 10.329 17.2803 10.4697C17.421 10.6103 17.5 10.8011 17.5 11C17.5003 12.6606 16.8885 14.263 15.7816 15.5008C14.6747 16.7386 13.1503 17.525 11.5 17.7095V19.25C11.5 19.4489 11.421 19.6397 11.2803 19.7803C11.1397 19.921 10.9489 20 10.75 20C10.5511 20 10.3603 19.921 10.2197 19.7803C10.079 19.6397 10 19.4489 10 19.25V17.7095C8.34971 17.525 6.82534 16.7386 5.71842 15.5008C4.61149 14.263 3.99968 12.6606 4 11C4 10.8011 4.07902 10.6103 4.21967 10.4697C4.36032 10.329 4.55109 10.25 4.75 10.25Z" fill="#737B8C"/>
</svg>
