<svg width="72" height="42" viewBox="0 0 72 42" fill="none" xmlns="http://www.w3.org/2000/svg">
<rect width="71.1488" height="42" rx="10" fill="url(#paint0_linear_33_6725)"/>
<mask id="mask0_33_6725" style="mask-type:alpha" maskUnits="userSpaceOnUse" x="0" y="0" width="72" height="42">
<rect width="71.1488" height="42" rx="10" fill="white"/>
</mask>
<g mask="url(#mask0_33_6725)">
<rect width="71.1488" height="42" fill="#415A6B"/>
<rect x="6.99604" y="34.1381" width="7.96946" height="3.66186" fill="#344A5E"/>
<rect x="19.0978" y="34.1381" width="7.96944" height="3.66186" fill="#344A5E"/>
<rect x="31.1991" y="34.1381" width="7.96944" height="3.66186" fill="#344A5E"/>
<rect x="43.3013" y="34.1381" width="7.96945" height="3.66186" fill="#344A5E"/>
<rect x="55.4031" y="34.1381" width="7.96943" height="3.66186" fill="#344A5E"/>
<path fill-rule="evenodd" clip-rule="evenodd" d="M47.8765 6.06379C41.2353 8.36937 37.8409 15.2862 40.3498 21.3893C42.8587 27.4925 50.3853 30.6118 57.0266 28.3062C63.6678 26.0006 67.0621 19.0838 64.5532 12.9807C62.0444 6.87754 54.5177 3.75821 47.8765 6.06379ZM41.6781 21.525L45.958 20.0331C46.6959 21.7963 47.5813 23.2881 48.6145 24.5087L45.2201 25.7294C43.7443 24.6443 42.416 23.2881 41.6781 21.525ZM48.9098 6.87751L50.3856 10.675L54.2227 9.31875C52.4517 7.55559 50.5331 6.60631 48.9098 6.87751ZM54.9606 10.2683C55.9938 11.489 57.0267 12.9808 57.7648 14.7439L52.7469 16.5071L50.8283 11.7602L54.9606 10.2683ZM49.205 11.082L47.7292 7.28445C46.2533 8.0982 45.5154 9.99689 45.5154 12.4381L49.205 11.082ZM49.6476 12.1668L51.5662 16.9136L46.5484 18.6768C45.958 16.9136 45.5153 15.1506 45.3678 13.6587L49.6476 12.1668ZM41.2353 20.44L45.5151 18.9482C44.7772 17.3207 44.482 15.5576 44.3345 13.93L40.9401 15.1506C40.4974 16.9138 40.6449 18.6769 41.2353 20.44ZM46.991 19.6263L52.0088 17.8632L53.9273 22.61L49.795 24.1018C48.762 22.8813 47.8765 21.3894 46.991 19.6263ZM55.8459 27.4926L54.3701 23.6951L50.533 25.0513C52.304 26.8145 54.2226 27.7638 55.8459 27.4926ZM57.1745 27.0856L55.6987 23.2882L59.3883 21.9319C59.2406 24.3731 58.5028 26.2718 57.1745 27.0856ZM53.1898 17.4563L55.1083 22.2032L59.3882 20.7113C59.2406 19.2195 58.7979 17.4563 58.2076 15.6932L53.1898 17.4563ZM59.2406 15.4218L63.5205 13.93C64.1109 15.6932 64.2583 17.4562 63.8156 19.2194L60.4213 20.44C60.4213 18.8125 59.9785 17.185 59.2406 15.4218ZM56.2888 9.86142C57.3219 11.0821 58.2074 12.5739 58.9453 14.3371L63.2251 12.8452C62.4872 11.0821 61.159 9.72576 59.6831 8.64079L56.2888 9.86142ZM58.3549 7.96245L55.4033 8.91188C54.3702 7.69124 53.1896 6.87749 51.8614 6.33494C54.2226 6.33494 56.4363 6.87749 58.3549 7.96245ZM44.3347 12.8452C44.3347 11.2177 44.6298 9.86136 45.0725 8.7764C43.1539 10.1327 41.9733 11.8959 41.2354 13.9301L44.3347 12.8452ZM46.4009 26.5432L49.5001 25.4582C50.5332 26.5432 51.7138 27.4926 52.8944 28.0352C50.6807 28.035 48.3195 27.4925 46.4009 26.5432ZM60.5686 21.5252C60.5686 23.1527 60.2735 24.5089 59.8308 25.5939C61.6017 24.2376 62.93 22.4746 63.6679 20.4402L60.5686 21.5252Z" fill="#344A5E"/>
<path fill-rule="evenodd" clip-rule="evenodd" d="M9.80585 12.565H7.00533V6.40507H9.51109C9.95329 6.40507 10.248 6.40507 10.6903 6.54511L10.6927 6.54629C10.9867 6.68594 11.2803 6.82546 11.4272 6.96511C11.722 7.24507 11.8694 7.66507 11.8694 8.08507C11.8694 8.50507 11.722 8.92508 11.4272 9.20503C11.2799 9.34508 11.2799 9.34508 11.1325 9.34508C11.1325 9.34508 10.985 9.34508 10.8377 9.48512C11.2799 9.62516 11.5747 9.76508 11.7221 10.0452C12.0169 10.3251 12.0169 10.6052 12.0169 11.0252C12.0169 11.4452 11.8694 11.8652 11.5747 12.1452L11.5745 12.1452C11.2797 12.2852 10.6901 12.565 9.80585 12.565ZM8.47909 8.92492H9.21605C9.65825 8.92492 9.95301 8.92492 10.1005 8.78487C10.2479 8.64483 10.3952 8.50492 10.3952 8.22483C10.3952 7.94501 10.248 7.8051 10.1009 7.66518L10.1005 7.66479C9.96797 7.66479 9.83546 7.6365 9.68956 7.60535C9.51085 7.56719 9.31205 7.52475 9.0686 7.52475H8.47895V8.92492H8.47909ZM9.5108 11.3048H8.47895V9.90468H9.36335C9.80556 9.90468 10.2479 9.90468 10.3952 10.0447L10.3956 10.0451C10.5428 10.185 10.69 10.3249 10.69 10.6048C10.69 10.8849 10.5426 11.0248 10.3952 11.1648C10.2478 11.3048 9.953 11.3048 9.5108 11.3048Z" fill="white"/>
<path fill-rule="evenodd" clip-rule="evenodd" d="M17.3231 11.305L17.9128 12.565H19.3868L16.5862 6.40502H15.2596L12.4589 12.565H13.9328L14.5225 11.305H17.3231ZM15.1122 10.0451L15.8491 8.22504L16.7335 10.0451H15.1122Z" fill="white"/>
<path d="M24.5457 6.40502H26.0198V12.565H24.5457L21.4503 8.78499V12.565H19.9763V6.40502H21.3029L24.3983 10.3251V6.40502H24.5457Z" fill="white"/>
<path d="M27.6412 6.40502H29.1152V8.92503L31.4737 6.40502H33.2425L30.7366 9.06507C30.884 9.34503 31.3262 9.90507 31.9158 10.7451C32.5054 11.5851 32.9476 12.1451 33.2424 12.5651H31.621L29.7047 10.185L29.1151 10.885V12.565H27.6412V6.40502Z" fill="white"/>
<path d="M19.2913 17.85H8.3799C7.48307 17.85 6.88513 18.5911 6.88513 19.3324V28.9676C6.88513 29.857 7.63245 30.45 8.3799 30.45H19.1419C20.0387 30.45 20.6366 29.7088 20.6366 28.9676V19.3324C20.786 18.5912 20.0387 17.85 19.2913 17.85Z" fill="#FFD15C"/>
</g>
<defs>
<linearGradient id="paint0_linear_33_6725" x1="53.3616" y1="-13.6948" x2="25.9425" y2="21.9179" gradientUnits="userSpaceOnUse">
<stop stop-color="#68B6F3"/>
<stop offset="1" stop-color="#3F2F8C"/>
</linearGradient>
</defs>
</svg>
