<svg width="20" height="19" viewBox="0 0 20 19" fill="none" xmlns="http://www.w3.org/2000/svg">
<path d="M2.6875 7.30313C2.9375 7.6 3.125 7.95625 3.25 8.3125C3.375 8.66875 3.4375 9.08438 3.4375 9.5C3.4375 9.91563 3.375 10.3313 3.25 10.6875C3.125 11.0438 2.9375 11.4 2.6875 11.6969C2.375 12.1125 2.4375 12.7063 2.875 13.0031C3.3125 13.3 3.9375 13.2406 4.25 12.825C4.625 12.35 4.875 11.875 5.125 11.2813C5.375 10.6875 5.4375 10.0938 5.4375 9.5C5.4375 8.90625 5.3125 8.3125 5.125 7.71875C4.9375 7.18438 4.625 6.65 4.25 6.175C3.9375 5.75938 3.3125 5.7 2.875 5.99688C2.4375 6.29375 2.375 6.8875 2.6875 7.30313Z" fill="#FAFAFA"/>
<path d="M6.125 5.58125C6.875 6.70937 7.3125 8.075 7.3125 9.5C7.3125 10.925 6.875 12.2906 6.125 13.4187C5.8125 13.8344 6 14.4281 6.4375 14.725C6.9375 15.0219 7.5 14.8437 7.8125 14.4281C8.75 13.0031 9.3125 11.3406 9.3125 9.5C9.3125 7.71875 8.75 5.99687 7.8125 4.57187C7.5 4.15625 6.875 3.97812 6.4375 4.275C6 4.57187 5.8125 5.10625 6.125 5.58125Z" fill="#FAFAFA"/>
<path d="M9.74999 3.8C10.8125 5.4625 11.375 7.42188 11.375 9.5C11.375 11.5781 10.75 13.5375 9.74999 15.2C9.49999 15.675 9.62499 16.2094 10.125 16.5062C10.625 16.7437 11.1875 16.625 11.5 16.15C12.75 14.1906 13.4375 11.9344 13.4375 9.5C13.4375 7.06563 12.75 4.80938 11.5 2.85C11.25 2.375 10.625 2.25625 10.125 2.49375C9.62499 2.79062 9.49999 3.325 9.74999 3.8Z" fill="#FAFAFA"/>
<path d="M13.375 2.01875C14.6875 4.21563 15.5 6.76875 15.5 9.5C15.5 12.2312 14.75 14.7844 13.375 16.9813C13.125 17.4563 13.25 17.9906 13.75 18.2875C14.25 18.525 14.8125 18.4062 15.125 17.9312C16.625 15.4375 17.5 12.5875 17.5 9.5C17.5 6.4125 16.625 3.5625 15.125 1.06875C14.875 0.59375 14.25 0.475 13.75 0.7125C13.25 0.95 13.125 1.54375 13.375 2.01875Z" fill="#FAFAFA"/>
</svg>
