<svg width="78" height="13" viewBox="0 0 78 13" fill="none" xmlns="http://www.w3.org/2000/svg">
<path d="M7.55683 5.00103C7.15134 3.36679 5.83658 2.43293 3.9443 2.43293C1.54823 2.43293 0 4.00574 0 6.46324C0 7.66742 0.393201 8.74873 1.10588 9.44911C1.78169 10.1372 2.78927 10.5058 3.96887 10.5058C5.39423 10.5058 6.51239 10.0021 7.12677 9.09278C7.36023 8.73644 7.50768 8.40467 7.64285 7.87631L5.38194 7.51997C5.33279 7.80259 5.27135 7.92546 5.16076 8.0852C4.91501 8.42925 4.47266 8.62585 3.99345 8.62585C3.01045 8.62585 2.38378 7.76572 2.38378 6.43867C2.38378 5.08704 2.97358 4.30064 3.96887 4.30064C4.41122 4.30064 4.75528 4.44809 5.00103 4.7307C5.16076 4.91501 5.23449 5.08704 5.34508 5.45567L7.55683 5.00103Z" fill="white"/>
<path d="M12.3223 10.5058C14.7675 10.5058 16.3895 8.88389 16.3895 6.43867C16.3895 4.00574 14.8167 2.44522 12.3346 2.44522C9.85249 2.44522 8.27969 4.00574 8.27969 6.46324C8.27969 8.93304 9.85249 10.5058 12.3223 10.5058ZM12.3469 4.28835C13.3913 4.28835 14.018 5.09933 14.018 6.47553C14.018 7.83945 13.4036 8.63814 12.3346 8.63814C11.2656 8.63814 10.6266 7.81487 10.6266 6.45096C10.6266 5.09933 11.2656 4.28835 12.3469 4.28835Z" fill="white"/>
<path d="M17.4197 0V1.84313H19.9141V0L17.4197 0ZM17.3828 2.72783C17.4566 3.28077 17.4811 3.78456 17.4811 4.58325V8.36781C17.4811 9.15421 17.4566 9.62114 17.3828 10.2232H19.9509C19.8895 9.69487 19.8526 9.03134 19.8526 8.36781V4.58325C19.8526 3.72312 19.8772 3.23162 19.9509 2.72783H17.3828Z" fill="white"/>
<path d="M23.8022 10.2232C23.7285 9.58428 23.7039 9.0682 23.7039 8.36781V5.88573C24.2323 5.0256 24.8466 4.59554 25.5347 4.59554C25.9034 4.59554 26.186 4.71841 26.3457 4.93959C26.4932 5.14848 26.5423 5.35737 26.5423 5.84887V8.36781C26.5423 9.11735 26.5177 9.63343 26.444 10.2232H28.9998C28.9384 9.70715 28.9015 9.09278 28.9015 8.3801V5.29593C28.9015 4.32521 28.6926 3.72312 28.2011 3.23162C27.7465 2.77698 27.0707 2.54352 26.2228 2.54352C25.2153 2.54352 24.4657 2.85071 23.6916 3.58796C23.6916 3.50195 23.7039 3.31763 23.7039 3.24391V2.72783H21.2587C21.3324 3.21933 21.357 3.73541 21.357 4.58325V8.36781C21.357 9.12964 21.3324 9.64572 21.2587 10.2232H23.8022Z" fill="white"/>
<path d="M32.8136 10.2232C32.7398 9.62114 32.7153 9.14193 32.7153 8.36781V5.88573C33.0593 5.05018 33.6245 4.57096 34.2881 4.57096C34.583 4.57096 34.8287 4.68155 34.9639 4.87815C35.1236 5.08704 35.1728 5.3205 35.1728 5.83658V8.36781C35.1728 9.15421 35.1482 9.67029 35.0745 10.2232H37.6303C37.5566 9.63343 37.532 9.11735 37.532 8.3801V5.87344C37.8392 5.05018 38.4044 4.55868 39.0311 4.55868C39.7315 4.55868 40.0018 4.91501 40.0018 5.83658V8.36781C40.0018 9.20336 39.9772 9.64572 39.9035 10.2232H42.4593C42.3856 9.64572 42.361 9.14193 42.361 8.3801V5.33279C42.361 3.47737 41.464 2.51895 39.7069 2.51895C38.6379 2.51895 37.8883 2.83842 37.1265 3.58796C36.9668 3.28077 36.8439 3.13332 36.6227 2.97358C36.2172 2.67868 35.6889 2.53123 35.0499 2.53123C34.0792 2.53123 33.3296 2.85071 32.703 3.53881C32.703 3.51424 32.703 3.48966 32.703 3.47737C32.703 3.44051 32.703 3.41594 32.703 3.41594C32.7153 3.29306 32.7153 3.29306 32.7153 3.24391V2.72783H30.2823C30.3561 3.20705 30.3806 3.6494 30.3806 4.58325V8.36781C30.3806 9.14193 30.3561 9.658 30.2823 10.2232L32.8136 10.2232Z" fill="white"/>
<path d="M47.457 10.5058C49.9022 10.5058 51.5241 8.88389 51.5241 6.43867C51.5241 4.00574 49.9513 2.44522 47.4692 2.44522C44.9872 2.44522 43.4144 4.00574 43.4144 6.46324C43.4144 8.93304 44.9872 10.5058 47.457 10.5058ZM47.4815 4.28835C48.526 4.28835 49.1526 5.09933 49.1526 6.47553C49.1526 7.83945 48.5383 8.63814 47.4692 8.63814C46.4002 8.63814 45.7613 7.81487 45.7613 6.45096C45.7613 5.09933 46.4002 4.28835 47.4815 4.28835Z" fill="white"/>
<path d="M55.061 10.2232C54.9873 9.58428 54.9627 9.0682 54.9627 8.36781V5.88573C55.4911 5.0256 56.1055 4.59554 56.7936 4.59554C57.1622 4.59554 57.4448 4.71841 57.6045 4.93959C57.752 5.14848 57.8011 5.35737 57.8011 5.84887V8.36781C57.8011 9.11735 57.7766 9.63343 57.7028 10.2232H60.2586C60.1972 9.70715 60.1603 9.09278 60.1603 8.3801V5.29593C60.1603 4.32521 59.9515 3.72312 59.46 3.23162C59.0053 2.77698 58.3295 2.54352 57.4817 2.54352C56.4741 2.54352 55.7245 2.85071 54.9504 3.58796C54.9504 3.50195 54.9627 3.31763 54.9627 3.24391V2.72783H52.5175C52.5912 3.21933 52.6158 3.73541 52.6158 4.58325V8.36781C52.6158 9.12964 52.5912 9.64572 52.5175 10.2232H55.061Z" fill="white"/>
<path d="M69.012 7.16363C68.9997 7.04076 68.9997 6.96703 68.9997 6.91788C68.9628 6.21749 68.9137 5.70142 68.8154 5.30821C68.3853 3.47737 67.046 2.43293 65.1291 2.43293C62.7822 2.43293 61.2217 4.0426 61.2217 6.47553C61.2217 7.692 61.6149 8.73644 62.3398 9.47369C63.0402 10.1741 63.9864 10.5181 65.1906 10.5181C66.407 10.5181 67.39 10.1618 68.0904 9.47369C68.4345 9.12964 68.6188 8.84703 68.9014 8.20807L66.7634 7.60598C66.6651 7.92546 66.579 8.06062 66.3947 8.23265C66.0753 8.52755 65.6452 8.68729 65.1537 8.68729C64.183 8.68729 63.6055 8.15892 63.4826 7.16363H69.012ZM63.5194 5.46795C63.7283 4.65698 64.2567 4.26377 65.1291 4.26377C65.977 4.26377 66.5053 4.68155 66.6773 5.46795H63.5194Z" fill="white"/>
<path d="M72.4706 9.5597L72.2126 10.0881C72.0283 10.4567 71.6842 10.6656 71.2173 10.6656C70.8978 10.6656 70.6644 10.6041 70.2589 10.3953L69.9885 12.349C70.6644 12.4964 71.1313 12.5579 71.6719 12.5579C73.0727 12.5579 73.9574 12.0295 74.4489 10.8745L77.2628 4.37436C77.6928 3.36678 77.6928 3.36678 78 2.72783H75.3336C75.2599 3.1579 75.1493 3.51424 74.8053 4.36208L73.7117 7.15135L72.5812 4.31293C72.3232 3.6494 72.1634 3.12103 72.102 2.72783L69.4356 2.72783C69.5953 3.03502 69.6445 3.14561 70.1729 4.37436L72.4706 9.5597Z" fill="white"/>
</svg>
