<svg width="24" height="24" viewBox="0 0 24 24" fill="none" xmlns="http://www.w3.org/2000/svg">
<path fill-rule="evenodd" clip-rule="evenodd" d="M4.37 17.279C4.37106 18.0697 4.68571 18.8277 5.24493 19.3868C5.80415 19.9458 6.56228 20.2602 7.353 20.261H8.589C8.78791 20.261 8.97868 20.34 9.11933 20.4807C9.25998 20.6213 9.339 20.8121 9.339 21.011C9.339 21.2099 9.25998 21.4007 9.11933 21.5413C8.97868 21.682 8.78791 21.761 8.589 21.761H7.353C6.16461 21.7597 5.02526 21.2871 4.18485 20.4469C3.34444 19.6066 2.87159 18.4674 2.87 17.279L2.869 13.954L1.75 13.955C1.55109 13.955 1.36032 13.876 1.21967 13.7353C1.07902 13.5947 1 13.4039 1 13.205C1 13.0061 1.07902 12.8153 1.21967 12.6747C1.36032 12.534 1.55109 12.455 1.75 12.455L3.606 12.454H20.894L22.75 12.455C22.9489 12.455 23.1397 12.534 23.2803 12.6747C23.421 12.8153 23.5 13.0061 23.5 13.205C23.5 13.4039 23.421 13.5947 23.2803 13.7353C23.1397 13.876 22.9489 13.955 22.75 13.955H21.63V17.279C21.6284 18.4674 21.1556 19.6066 20.3151 20.4469C19.4747 21.2871 18.3354 21.7597 17.147 21.761H15.942C15.7431 21.761 15.5523 21.682 15.4117 21.5413C15.271 21.4007 15.192 21.2099 15.192 21.011C15.192 20.8121 15.271 20.6213 15.4117 20.4807C15.5523 20.34 15.7431 20.261 15.942 20.261H17.147C17.9377 20.2602 18.6959 19.9458 19.2551 19.3868C19.8143 18.8277 20.1289 18.0697 20.13 17.279V13.954H4.369V17.279H4.37ZM17.147 3C18.3352 3.00132 19.4744 3.47379 20.3148 4.31379C21.1552 5.1538 21.6281 6.29279 21.63 7.481V8.995C21.63 9.19391 21.551 9.38468 21.4103 9.52533C21.2697 9.66598 21.0789 9.745 20.88 9.745C20.6811 9.745 20.4903 9.66598 20.3497 9.52533C20.209 9.38468 20.13 9.19391 20.13 8.995V7.481C20.1284 6.69062 19.8135 5.93312 19.2544 5.37452C18.6952 4.81591 17.9374 4.50179 17.147 4.501H15.942C15.7431 4.501 15.5523 4.42198 15.4117 4.28133C15.271 4.14068 15.192 3.94991 15.192 3.751C15.192 3.55209 15.271 3.36132 15.4117 3.22067C15.5523 3.08002 15.7431 3.001 15.942 3.001H17.147V3ZM8.589 3C8.78791 3 8.97868 3.07902 9.11933 3.21967C9.25998 3.36032 9.339 3.55109 9.339 3.75C9.339 3.94891 9.25998 4.13968 9.11933 4.28033C8.97868 4.42098 8.78791 4.5 8.589 4.5H7.353C6.56245 4.50079 5.80447 4.81505 5.24528 5.37387C4.68609 5.93269 4.37132 6.69045 4.37 7.481V8.995C4.37 9.19391 4.29098 9.38468 4.15033 9.52533C4.00968 9.66598 3.81891 9.745 3.62 9.745C3.42109 9.745 3.23032 9.66598 3.08967 9.52533C2.94902 9.38468 2.87 9.19391 2.87 8.995V7.481C2.87212 6.29296 3.34521 5.15423 4.18556 4.31444C5.02591 3.47465 6.16496 3.00232 7.353 3.001H8.59L8.589 3Z" fill="#C7C7C7"/>
</svg>
