<svg width="24" height="24" viewBox="0 0 24 24" fill="none" xmlns="http://www.w3.org/2000/svg">
<path d="M9.16008 10.87C9.06008 10.86 8.94008 10.86 8.83008 10.87C7.68228 10.831 6.59472 10.3468 5.79771 9.51995C5.00069 8.69307 4.55682 7.58844 4.56008 6.43999C4.56008 3.98999 6.54008 1.99999 9.00008 1.99999C10.1763 1.97877 11.3128 2.42568 12.1595 3.2424C13.0063 4.05912 13.4939 5.17875 13.5151 6.35499C13.5363 7.53123 13.0894 8.66771 12.2727 9.51444C11.4559 10.3612 10.3363 10.8488 9.16008 10.87Z" stroke="#C1C1C1" stroke-opacity="0.9" stroke-width="1.5" stroke-linecap="round" stroke-linejoin="round"/>
<path opacity="0.4" d="M16.41 4C18.35 4 19.91 5.57 19.91 7.5C19.91 9.39 18.41 10.93 16.54 11C16.4537 10.99 16.3664 10.99 16.28 11" stroke="#C1C1C1" stroke-opacity="0.9" stroke-width="1.5" stroke-linecap="round" stroke-linejoin="round"/>
<path d="M4.15997 14.56C1.73997 16.18 1.73997 18.82 4.15997 20.43C6.90997 22.27 11.42 22.27 14.17 20.43C16.59 18.81 16.59 16.17 14.17 14.56C11.43 12.73 6.91997 12.73 4.15997 14.56V14.56Z" stroke="#C1C1C1" stroke-opacity="0.9" stroke-width="1.5" stroke-linecap="round" stroke-linejoin="round"/>
<path opacity="0.4" d="M18.3401 20C19.0601 19.85 19.7401 19.56 20.3001 19.13C21.8601 17.96 21.8601 16.03 20.3001 14.86C19.7501 14.44 19.0801 14.16 18.3701 14" stroke="#C1C1C1" stroke-opacity="0.9" stroke-width="1.5" stroke-linecap="round" stroke-linejoin="round"/>
</svg>
