<svg width="100" height="111" viewBox="0 0 100 111" fill="none" xmlns="http://www.w3.org/2000/svg">
<path d="M82.2158 13.7085C81.7718 13.7085 81.3278 13.5975 80.9393 13.3755C70.2833 7.881 61.0703 5.55 50.0258 5.55C39.0368 5.55 28.6028 8.1585 19.1123 13.3755C17.7803 14.097 16.1153 13.5975 15.3383 12.2655C14.9921 11.6164 14.9145 10.8574 15.1221 10.1517C15.3296 9.44595 15.8058 8.84984 16.4483 8.4915C26.7713 2.886 38.0933 0 50.0258 0C61.8473 0 72.1703 2.6085 83.4923 8.436C84.8798 9.1575 85.3793 10.8225 84.6578 12.1545C84.4383 12.6172 84.0927 13.0085 83.6607 13.2834C83.2287 13.5583 82.7278 13.7057 82.2158 13.7085ZM2.79527 42.846C2.28368 42.8508 1.78076 42.7137 1.34231 42.4501C0.903858 42.1865 0.547003 41.8065 0.31133 41.3524C0.0756581 40.8983 -0.0296206 40.3878 0.00717166 39.8775C0.0439639 39.3672 0.221389 38.8771 0.519767 38.4615C6.01427 30.6915 13.0073 24.5865 21.3323 20.313C38.7593 11.322 61.0703 11.2665 78.5528 20.2575C86.8778 24.531 93.8708 30.5805 99.3653 38.295C99.5782 38.5933 99.73 38.9308 99.8118 39.288C99.8936 39.6452 99.9038 40.0151 99.8419 40.3763C99.78 40.7375 99.6471 41.0829 99.451 41.3924C99.2549 41.702 98.9994 41.9697 98.6993 42.18C97.4228 43.068 95.7023 42.7905 94.8143 41.514C89.954 34.6341 83.4981 29.0352 75.9998 25.197C60.0713 17.0385 39.7028 17.0385 23.8298 25.2525C16.2818 29.1375 9.95477 34.6875 4.95977 41.6805C4.51577 42.4575 3.68327 42.846 2.79527 42.846ZM37.4828 109.835C37.1188 109.839 36.758 109.767 36.4234 109.624C36.0889 109.48 35.7881 109.269 35.5403 109.002C30.7118 104.174 28.1033 101.066 24.3848 94.35C20.5553 87.5235 18.5573 79.1985 18.5573 70.263C18.5573 53.7795 32.6543 40.3485 49.9703 40.3485C67.2863 40.3485 81.3833 53.7795 81.3833 70.263C81.3833 71.817 80.1623 73.038 78.6083 73.038C77.0543 73.038 75.8333 71.817 75.8333 70.263C75.8333 56.832 64.2338 45.8985 49.9703 45.8985C35.7068 45.8985 24.1073 56.832 24.1073 70.263C24.1073 78.255 25.8833 85.6365 29.2688 91.6305C32.8208 98.013 35.2628 100.733 39.5363 105.062C40.5908 106.172 40.5908 107.892 39.5363 109.002C38.9258 109.557 38.2043 109.835 37.4828 109.835ZM77.2763 99.567C70.6718 99.567 64.8443 97.902 60.0713 94.6275C51.8018 89.022 46.8623 79.92 46.8623 70.263C46.8623 68.709 48.0833 67.488 49.6373 67.488C51.1913 67.488 52.4123 68.709 52.4123 70.263C52.4123 78.0885 56.4083 85.47 63.1793 90.021C67.1198 92.685 71.7263 93.9615 77.2763 93.9615C78.6083 93.9615 80.8283 93.795 83.0483 93.4065C84.5468 93.129 85.9898 94.128 86.2673 95.682C86.5448 97.1805 85.5458 98.6235 83.9918 98.901C80.8283 99.5115 78.0533 99.567 77.2763 99.567ZM66.1208 111C65.8988 111 65.6213 110.945 65.3993 110.889C56.5748 108.447 50.8028 105.173 44.7533 99.234C40.9198 95.4488 37.88 90.9368 35.812 85.9622C33.744 80.9875 32.6894 75.6503 32.7098 70.263C32.7098 61.272 40.3688 53.946 49.8038 53.946C59.2388 53.946 66.8978 61.272 66.8978 70.263C66.8978 76.2015 72.0593 81.03 78.4418 81.03C84.8243 81.03 89.9858 76.2015 89.9858 70.263C89.9858 49.3395 71.9483 32.3565 49.7483 32.3565C33.9863 32.3565 19.5563 41.1255 13.0628 54.723C10.8983 59.2185 9.78827 64.491 9.78827 70.263C9.78827 74.592 10.1768 81.4185 13.5068 90.2985C14.0618 91.7415 13.3403 93.351 11.8973 93.8505C10.4543 94.4055 8.84477 93.6285 8.34527 92.241C5.67094 85.2219 4.29802 77.7743 4.29377 70.263C4.29377 63.603 5.57027 57.5535 8.06777 52.281C15.4493 36.7965 31.8218 26.751 49.7483 26.751C75.0008 26.751 95.5358 46.2315 95.5358 70.2075C95.5358 79.1985 87.8768 86.5245 78.4418 86.5245C69.0068 86.5245 61.3478 79.1985 61.3478 70.2075C61.3478 64.269 56.1863 59.4405 49.8038 59.4405C43.4213 59.4405 38.2598 64.269 38.2598 70.2075C38.2598 79.698 41.9228 88.578 48.6383 95.238C53.9108 100.455 58.9613 103.341 66.7868 105.506C68.2853 105.894 69.1178 107.448 68.7293 108.891C68.4518 110.168 67.2863 111 66.1208 111Z" fill="#FFFF00"/>
</svg>
