<svg width="74" height="82" viewBox="0 0 74 82" fill="none" xmlns="http://www.w3.org/2000/svg">
<path d="M60.736 10.127C60.408 10.127 60.08 10.045 59.793 9.881C51.921 5.822 45.115 4.1 36.956 4.1C28.838 4.1 21.13 6.027 14.119 9.881C13.135 10.414 11.905 10.045 11.331 9.061C11.0753 8.58149 11.0179 8.02079 11.1713 7.49944C11.3246 6.97809 11.6764 6.53772 12.151 6.273C19.777 2.132 28.141 0 36.956 0C45.689 0 53.315 1.927 61.679 6.232C62.704 6.765 63.073 7.995 62.54 8.979C62.3779 9.32078 62.1225 9.60986 61.8034 9.81295C61.4842 10.016 61.1142 10.1249 60.736 10.127ZM2.06497 31.652C1.68704 31.6555 1.31552 31.5543 0.991617 31.3595C0.667714 31.1648 0.404092 30.8841 0.229992 30.5486C0.0558916 30.2132 -0.0218819 29.836 0.00529798 29.4591C0.0324779 29.0821 0.163549 28.72 0.383972 28.413C4.44297 22.673 9.60897 18.163 15.759 15.006C28.633 8.364 45.115 8.323 58.03 14.965C64.18 18.122 69.346 22.591 73.405 28.29C73.5623 28.5103 73.6744 28.7596 73.7348 29.0235C73.7952 29.2874 73.8028 29.5607 73.7571 29.8275C73.7113 30.0944 73.6132 30.3495 73.4683 30.5782C73.3234 30.8069 73.1347 31.0046 72.913 31.16C71.97 31.816 70.699 31.611 70.043 30.668C66.4525 25.5855 61.6832 21.4494 56.144 18.614C44.377 12.587 29.33 12.587 17.604 18.655C12.028 21.525 7.35397 25.625 3.66397 30.791C3.33597 31.365 2.72097 31.652 2.06497 31.652ZM27.69 81.139C27.4211 81.1423 27.1545 81.0892 26.9074 80.9833C26.6603 80.8774 26.438 80.7209 26.255 80.524C22.688 76.957 20.761 74.661 18.014 69.7C15.185 64.657 13.709 58.507 13.709 51.906C13.709 39.729 24.123 29.807 36.915 29.807C49.707 29.807 60.121 39.729 60.121 51.906C60.121 53.054 59.219 53.956 58.071 53.956C56.923 53.956 56.021 53.054 56.021 51.906C56.021 41.984 47.452 33.907 36.915 33.907C26.378 33.907 17.809 41.984 17.809 51.906C17.809 57.81 19.121 63.263 21.622 67.691C24.246 72.406 26.05 74.415 29.207 77.613C29.986 78.433 29.986 79.704 29.207 80.524C28.756 80.934 28.223 81.139 27.69 81.139ZM57.087 73.554C52.208 73.554 47.903 72.324 44.377 69.905C38.268 65.764 34.619 59.04 34.619 51.906C34.619 50.758 35.521 49.856 36.669 49.856C37.817 49.856 38.719 50.758 38.719 51.906C38.719 57.687 41.671 63.14 46.673 66.502C49.584 68.47 52.987 69.413 57.087 69.413C58.071 69.413 59.711 69.29 61.351 69.003C62.458 68.798 63.524 69.536 63.729 70.684C63.934 71.791 63.196 72.857 62.048 73.062C59.711 73.513 57.661 73.554 57.087 73.554ZM48.846 82C48.682 82 48.477 81.959 48.313 81.918C41.794 80.114 37.53 77.695 33.061 73.308C30.229 70.5117 27.9834 67.1785 26.4557 63.5036C24.928 59.8286 24.1489 55.8858 24.164 51.906C24.164 45.264 29.822 39.852 36.792 39.852C43.762 39.852 49.42 45.264 49.42 51.906C49.42 56.293 53.233 59.86 57.948 59.86C62.663 59.86 66.476 56.293 66.476 51.906C66.476 36.449 53.151 23.903 36.751 23.903C25.107 23.903 14.447 30.381 9.64997 40.426C8.05097 43.747 7.23097 47.642 7.23097 51.906C7.23097 55.104 7.51797 60.147 9.97797 66.707C10.388 67.773 9.85497 68.962 8.78897 69.331C7.72297 69.741 6.53397 69.167 6.16497 68.142C4.18934 62.9567 3.17511 57.4549 3.17197 51.906C3.17197 46.986 4.11497 42.517 5.95997 38.622C11.413 27.183 23.508 19.762 36.751 19.762C55.406 19.762 70.576 34.153 70.576 51.865C70.576 58.507 64.918 63.919 57.948 63.919C50.978 63.919 45.32 58.507 45.32 51.865C45.32 47.478 41.507 43.911 36.792 43.911C32.077 43.911 28.264 47.478 28.264 51.865C28.264 58.876 30.97 65.436 35.931 70.356C39.826 74.21 43.557 76.342 49.338 77.941C50.445 78.228 51.06 79.376 50.773 80.442C50.568 81.385 49.707 82 48.846 82Z" fill="#FFFF00"/>
</svg>
