<svg width="20" height="20" viewBox="0 0 20 20" fill="none" xmlns="http://www.w3.org/2000/svg">
<path fill-rule="evenodd" clip-rule="evenodd" d="M14.6023 6.16334V7.44112C16.0375 7.88913 17.0833 9.18845 17.0833 10.7403V14.8544C17.0833 16.7756 15.4905 18.3333 13.5268 18.3333H6.47399C4.50945 18.3333 2.91666 16.7756 2.91666 14.8544V10.7403C2.91666 9.18845 3.96328 7.88913 5.39773 7.44112V6.16334C5.4062 3.67899 7.46388 1.66667 9.98729 1.66667C12.5446 1.66667 14.6023 3.67899 14.6023 6.16334ZM10.0042 3.11587C11.7232 3.11587 13.1204 4.48226 13.1204 6.16334V7.26142H6.8796V6.14678C6.88806 4.47398 8.28526 3.11587 10.0042 3.11587ZM10.7409 13.7124C10.7409 14.1182 10.4107 14.4412 9.99576 14.4412C9.5893 14.4412 9.25906 14.1182 9.25906 13.7124V11.874C9.25906 11.4765 9.5893 11.1536 9.99576 11.1536C10.4107 11.1536 10.7409 11.4765 10.7409 11.874V13.7124Z" fill="#9E9E9E"/>
</svg>
