<svg width="24" height="24" viewBox="0 0 24 24" fill="none" xmlns="http://www.w3.org/2000/svg">
<g clip-path="url(#clip0_62_13495)">
<path d="M17 13C17 13.3978 16.842 13.7794 16.5607 14.0607C16.2794 14.342 15.8978 14.5 15.5 14.5C15.1022 14.5 14.7206 14.342 14.4393 14.0607C14.158 13.7794 14 13.3978 14 13C14 12.6022 14.158 12.2206 14.4393 11.9393C14.7206 11.658 15.1022 11.5 15.5 11.5C15.8978 11.5 16.2794 11.658 16.5607 11.9393C16.842 12.2206 17 12.6022 17 13Z" fill="#C7C7C7"/>
<path fill-rule="evenodd" clip-rule="evenodd" d="M4.813 5.72799L15.813 2.58499C16.1851 2.47864 16.5768 2.46013 16.9573 2.53091C17.3377 2.60169 17.6966 2.75983 18.0055 2.99288C18.3145 3.22593 18.5651 3.52752 18.7377 3.8739C18.9102 4.22028 19 4.60199 19 4.98899V5.99999C19.5304 5.99999 20.0391 6.2107 20.4142 6.58577C20.7893 6.96084 21 7.46955 21 7.99999V18C21 18.5304 20.7893 19.0391 20.4142 19.4142C20.0391 19.7893 19.5304 20 19 20H5C4.46957 20 3.96086 19.7893 3.58579 19.4142C3.21071 19.0391 3 18.5304 3 18V7.99999C3 6.95499 3.835 6.00699 4.813 5.72799ZM16.363 4.50799C16.4373 4.48681 16.5156 4.48315 16.5915 4.4973C16.6675 4.51145 16.7392 4.54302 16.8009 4.58953C16.8626 4.63604 16.9127 4.69623 16.9473 4.76536C16.9818 4.8345 16.9999 4.9107 17 4.98799V5.99999H11.14L16.363 4.50799ZM5 7.99999H19V18H5V7.99999Z" fill="#C7C7C7"/>
</g>
<defs>
<clipPath id="clip0_62_13495">
<rect width="24" height="24" fill="white"/>
</clipPath>
</defs>
</svg>
