<svg width="24" height="36" viewBox="0 0 24 36" fill="none" xmlns="http://www.w3.org/2000/svg">
<path opacity="0.9" d="M13.8701 33.9746C13.8701 35.0792 12.9747 35.9746 11.8701 35.9746C10.7655 35.9746 9.87012 35.0792 9.87012 33.9746C9.87012 32.87 10.7655 31.9746 11.8701 31.9746C12.9747 31.9746 13.8701 32.87 13.8701 33.9746Z" fill="#043434"/>
<path d="M20.83 8.00999L14.28 2.76999C13 1.74999 11 1.73999 9.72996 2.75999L3.17996 8.00999C2.23996 8.75999 1.66996 10.26 1.86996 11.44L3.12996 18.98C3.41996 20.67 4.98996 22 6.69996 22H17.3C18.99 22 20.59 20.64 20.88 18.97L22.14 11.43C22.32 10.26 21.75 8.75999 20.83 8.00999ZM12.75 18C12.75 18.41 12.41 18.75 12 18.75C11.59 18.75 11.25 18.41 11.25 18V15C11.25 14.59 11.59 14.25 12 14.25C12.41 14.25 12.75 14.59 12.75 15V18Z" fill="#043434"/>
</svg>
