<svg width="34" height="34" viewBox="0 0 34 34" fill="none" xmlns="http://www.w3.org/2000/svg">
<path d="M22.8607 11.5274C22.989 11.6558 23.0666 11.8263 23.0789 12.0075C23.0913 12.1886 23.0377 12.3681 22.928 12.5127L22.8607 12.5899L13.522 21.9286L20.2554 21.9144C20.4456 21.9131 20.6293 21.9839 20.7693 22.1127C20.9094 22.2414 20.9954 22.4185 21.0099 22.6082C21.0245 22.7979 20.9665 22.986 20.8478 23.1346C20.7291 23.2833 20.5584 23.3813 20.3702 23.409L20.259 23.4168L11.7065 23.4352C11.5167 23.4352 11.3338 23.3636 11.1944 23.2348L11.1732 23.2149L11.1526 23.1944C11.1426 23.1836 11.1329 23.1725 11.1236 23.1611L11.1732 23.2149C11.0594 23.1006 10.9852 22.953 10.9614 22.7935L10.96 22.7835C10.9556 22.7504 10.9535 22.7171 10.9536 22.6837L10.9699 14.1291C10.9677 13.9377 11.0386 13.7527 11.1682 13.6118C11.2978 13.4709 11.4763 13.3849 11.6672 13.3711C11.8581 13.3574 12.0471 13.417 12.1955 13.5379C12.3439 13.6588 12.4406 13.8317 12.4659 14.0215L12.473 14.132L12.4602 20.864L21.7975 11.5267C21.9383 11.3858 22.1294 11.3067 22.3287 11.3067C22.528 11.3067 22.7191 11.3858 22.86 11.5267L22.8607 11.5274Z" fill="#033333"/>
</svg>
